<svg width="60" height="59" viewBox="0 0 60 59" fill="none" xmlns="http://www.w3.org/2000/svg">
<path d="M3.71484 49.8945H4.96094V56H3.71484V49.8945ZM6.39844 51.3906H7.55469V51.7812C7.86198 51.6068 8.15495 51.4844 8.43359 51.4141C8.71484 51.3438 8.98958 51.3086 9.25781 51.3086C9.60938 51.3086 9.9349 51.3607 10.2344 51.4648C10.5339 51.5664 10.793 51.7188 11.0117 51.9219C11.2305 52.125 11.401 52.3789 11.5234 52.6836C11.6484 52.9857 11.7109 53.3359 11.7109 53.7344V56H10.5586V53.9219C10.5586 53.6693 10.5221 53.444 10.4492 53.2461C10.3789 53.0456 10.276 52.8776 10.1406 52.7422C10.0078 52.6042 9.84505 52.5 9.65234 52.4297C9.46224 52.3568 9.2487 52.3203 9.01172 52.3203C8.88672 52.3203 8.75781 52.3333 8.625 52.3594C8.49479 52.3854 8.36589 52.4232 8.23828 52.4727C8.11328 52.5195 7.99219 52.5794 7.875 52.6523C7.75781 52.7227 7.65104 52.8034 7.55469 52.8945V56H6.39844V51.3906ZM13.3164 54.5859C13.6289 54.7734 13.9727 54.9115 14.3477 55C14.7227 55.0885 15.1068 55.1328 15.5 55.1328C15.7656 55.1328 15.987 55.1146 16.1641 55.0781C16.3411 55.0417 16.4831 54.9948 16.5898 54.9375C16.6966 54.8802 16.7721 54.8151 16.8164 54.7422C16.8607 54.6693 16.8828 54.5951 16.8828 54.5195C16.8828 54.4102 16.8346 54.3164 16.7383 54.2383C16.6445 54.1602 16.4883 54.1211 16.2695 54.1211C16.168 54.1211 16.0586 54.1276 15.9414 54.1406C15.8242 54.1536 15.7005 54.168 15.5703 54.1836C15.4427 54.1966 15.3086 54.2096 15.168 54.2227C15.0299 54.2357 14.8893 54.2422 14.7461 54.2422C14.4336 54.2422 14.1667 54.2083 13.9453 54.1406C13.7266 54.0729 13.5482 53.9805 13.4102 53.8633C13.2721 53.7461 13.1719 53.6081 13.1094 53.4492C13.0469 53.2878 13.0156 53.1146 13.0156 52.9297C13.0156 52.6953 13.0703 52.4792 13.1797 52.2812C13.2891 52.0833 13.4453 51.9128 13.6484 51.7695C13.8516 51.6237 14.0964 51.5104 14.3828 51.4297C14.6719 51.349 14.9935 51.3086 15.3477 51.3086C15.5326 51.3086 15.7253 51.3203 15.9258 51.3438C16.1289 51.3646 16.3281 51.3932 16.5234 51.4297C16.7188 51.4661 16.9062 51.5091 17.0859 51.5586C17.2656 51.6055 17.4245 51.6562 17.5625 51.7109L17.1992 52.6094C16.9049 52.5 16.6107 52.4141 16.3164 52.3516C16.0247 52.2865 15.724 52.2539 15.4141 52.2539C15.1979 52.2539 15.0143 52.2708 14.8633 52.3047C14.7148 52.3359 14.5938 52.3789 14.5 52.4336C14.4062 52.4857 14.3372 52.5469 14.293 52.6172C14.2513 52.6849 14.2305 52.7565 14.2305 52.832C14.2305 52.8867 14.2409 52.9362 14.2617 52.9805C14.2852 53.0247 14.3216 53.0638 14.3711 53.0977C14.4232 53.1289 14.4896 53.1536 14.5703 53.1719C14.6536 53.1875 14.7552 53.1953 14.875 53.1953C14.9844 53.1953 15.1003 53.1888 15.2227 53.1758C15.3451 53.1628 15.4727 53.1497 15.6055 53.1367C15.7383 53.1211 15.875 53.1068 16.0156 53.0938C16.1589 53.0807 16.3047 53.0742 16.4531 53.0742C16.7292 53.0742 16.9701 53.1068 17.1758 53.1719C17.3841 53.237 17.556 53.3281 17.6914 53.4453C17.8268 53.5625 17.9284 53.7005 17.9961 53.8594C18.0638 54.0182 18.0977 54.1914 18.0977 54.3789C18.0977 54.6211 18.0417 54.8464 17.9297 55.0547C17.8177 55.263 17.651 55.444 17.4297 55.5977C17.2083 55.7487 16.9323 55.8672 16.6016 55.9531C16.2734 56.0391 15.8932 56.082 15.4609 56.082C15.1953 56.082 14.9388 56.0651 14.6914 56.0312C14.444 56 14.2083 55.957 13.9844 55.9023C13.7604 55.8451 13.5495 55.7786 13.3516 55.7031C13.1562 55.6276 12.9779 55.5469 12.8164 55.4609L13.3164 54.5859ZM19.8359 52.2578H18.7227V51.3906H19.8359V49.957H20.9922V51.3906H22.1055V52.2578H20.9922V56H19.8359V52.2578ZM22.9141 54.5469C22.9141 54.3255 22.9622 54.1237 23.0586 53.9414C23.1549 53.7591 23.2995 53.6029 23.4922 53.4727C23.6849 53.3398 23.9245 53.2383 24.2109 53.168C24.5 53.0951 24.8359 53.0586 25.2188 53.0586C25.5026 53.0586 25.8008 53.0794 26.1133 53.1211C26.4284 53.1628 26.7526 53.2266 27.0859 53.3125C27.0729 53.1667 27.0286 53.0326 26.9531 52.9102C26.8776 52.7852 26.7721 52.6784 26.6367 52.5898C26.5039 52.4987 26.3424 52.4284 26.1523 52.3789C25.9648 52.3294 25.7513 52.3047 25.5117 52.3047C25.3815 52.3047 25.2383 52.3125 25.082 52.3281C24.9258 52.3438 24.7643 52.3672 24.5977 52.3984C24.431 52.4297 24.2656 52.4688 24.1016 52.5156C23.9401 52.5625 23.7891 52.6185 23.6484 52.6836L23.2969 51.7344C23.4714 51.6719 23.6576 51.6146 23.8555 51.5625C24.056 51.5104 24.2604 51.4661 24.4688 51.4297C24.6771 51.3906 24.8854 51.3607 25.0938 51.3398C25.3021 51.319 25.5039 51.3086 25.6992 51.3086C26.5612 51.3086 27.2018 51.5286 27.6211 51.9688C28.0404 52.4089 28.25 53.0833 28.25 53.9922V56H27.0938V55.5664C26.974 55.6367 26.8424 55.7031 26.6992 55.7656C26.5586 55.8281 26.4049 55.8828 26.2383 55.9297C26.0716 55.9766 25.8919 56.013 25.6992 56.0391C25.5091 56.0677 25.3073 56.082 25.0938 56.082C24.7344 56.082 24.418 56.043 24.1445 55.9648C23.8737 55.8867 23.6471 55.7786 23.4648 55.6406C23.2826 55.5026 23.1445 55.3411 23.0508 55.1562C22.9596 54.9688 22.9141 54.7656 22.9141 54.5469ZM24.1328 54.5078C24.1328 54.5833 24.1523 54.6562 24.1914 54.7266C24.2305 54.7943 24.293 54.8555 24.3789 54.9102C24.4648 54.9622 24.5742 55.0052 24.707 55.0391C24.8424 55.0703 25.0052 55.0859 25.1953 55.0859C25.3984 55.0859 25.5951 55.0677 25.7852 55.0312C25.9753 54.9948 26.1523 54.9466 26.3164 54.8867C26.4805 54.8268 26.6289 54.7578 26.7617 54.6797C26.8945 54.6016 27.0052 54.5208 27.0938 54.4375V54.2344C26.9167 54.1849 26.7409 54.1432 26.5664 54.1094C26.3945 54.0755 26.2292 54.0495 26.0703 54.0312C25.9141 54.0104 25.7656 53.9961 25.625 53.9883C25.487 53.9805 25.3659 53.9766 25.2617 53.9766C25.0456 53.9766 24.8659 53.9909 24.7227 54.0195C24.5794 54.0482 24.4635 54.0872 24.375 54.1367C24.2865 54.1836 24.224 54.2396 24.1875 54.3047C24.151 54.3698 24.1328 54.4375 24.1328 54.5078ZM30.5039 56.7812C30.6497 56.8333 30.7982 56.8763 30.9492 56.9102C31.1003 56.9466 31.2461 56.9753 31.3867 56.9961C31.5299 57.0195 31.6667 57.0352 31.7969 57.043C31.9271 57.0534 32.043 57.0586 32.1445 57.0586C32.4518 57.0586 32.7188 57.0208 32.9453 56.9453C33.1745 56.8724 33.3646 56.7734 33.5156 56.6484C33.6693 56.5234 33.7839 56.3776 33.8594 56.2109C33.9349 56.0469 33.9727 55.8724 33.9727 55.6875V55.4883C33.8737 55.556 33.7578 55.6211 33.625 55.6836C33.4922 55.7461 33.3464 55.8008 33.1875 55.8477C33.0286 55.8945 32.8594 55.9323 32.6797 55.9609C32.5026 55.9896 32.319 56.0039 32.1289 56.0039C31.7513 56.0039 31.4023 55.9479 31.082 55.8359C30.7617 55.7214 30.4844 55.5625 30.25 55.3594C30.0156 55.1536 29.832 54.9076 29.6992 54.6211C29.569 54.3346 29.5039 54.0169 29.5039 53.668C29.5039 53.3112 29.5729 52.9883 29.7109 52.6992C29.849 52.4076 30.0391 52.1589 30.2812 51.9531C30.526 51.7474 30.8151 51.5885 31.1484 51.4766C31.4818 51.3646 31.8438 51.3086 32.2344 51.3086C32.401 51.3086 32.5664 51.319 32.7305 51.3398C32.8945 51.3607 33.0508 51.3893 33.1992 51.4258C33.3503 51.4622 33.4909 51.5065 33.6211 51.5586C33.7539 51.6081 33.8711 51.6628 33.9727 51.7227V51.3906H35.1289V55.4727C35.1289 55.8919 35.0651 56.263 34.9375 56.5859C34.8099 56.9089 34.6224 57.1797 34.375 57.3984C34.1302 57.6198 33.8255 57.7865 33.4609 57.8984C33.0964 58.013 32.6784 58.0703 32.207 58.0703C32.0378 58.0703 31.862 58.0625 31.6797 58.0469C31.4974 58.0339 31.3138 58.013 31.1289 57.9844C30.9466 57.9583 30.7656 57.9258 30.5859 57.8867C30.4089 57.8503 30.2383 57.8073 30.0742 57.7578L30.5039 56.7812ZM30.7188 53.6562C30.7188 53.8411 30.7552 54.0156 30.8281 54.1797C30.9036 54.3411 31.0104 54.4831 31.1484 54.6055C31.2865 54.7253 31.4531 54.8203 31.6484 54.8906C31.8438 54.9583 32.0638 54.9922 32.3086 54.9922C32.4674 54.9922 32.625 54.9779 32.7812 54.9492C32.9401 54.918 33.0911 54.875 33.2344 54.8203C33.3802 54.7656 33.5156 54.6992 33.6406 54.6211C33.7682 54.543 33.8789 54.4557 33.9727 54.3594V52.8398C33.8555 52.7461 33.7318 52.6667 33.6016 52.6016C33.4714 52.5365 33.3385 52.4831 33.2031 52.4414C33.0677 52.3997 32.931 52.3698 32.793 52.3516C32.6549 52.3307 32.5208 52.3203 32.3906 52.3203C32.125 52.3203 31.888 52.3555 31.6797 52.4258C31.474 52.4961 31.2995 52.5924 31.1562 52.7148C31.0156 52.8346 30.9076 52.9753 30.832 53.1367C30.7565 53.2982 30.7188 53.4714 30.7188 53.6562ZM36.4453 51.3906H37.6016V52.0547C37.8568 51.8646 38.1263 51.7005 38.4102 51.5625C38.694 51.4245 38.9766 51.319 39.2578 51.2461L39.5977 52.3047C39.1523 52.349 38.7604 52.4492 38.4219 52.6055C38.0859 52.7591 37.8125 52.9766 37.6016 53.2578V56H36.4453V51.3906ZM40.2422 54.5469C40.2422 54.3255 40.2904 54.1237 40.3867 53.9414C40.4831 53.7591 40.6276 53.6029 40.8203 53.4727C41.013 53.3398 41.2526 53.2383 41.5391 53.168C41.8281 53.0951 42.1641 53.0586 42.5469 53.0586C42.8307 53.0586 43.1289 53.0794 43.4414 53.1211C43.7565 53.1628 44.0807 53.2266 44.4141 53.3125C44.401 53.1667 44.3568 53.0326 44.2812 52.9102C44.2057 52.7852 44.1003 52.6784 43.9648 52.5898C43.832 52.4987 43.6706 52.4284 43.4805 52.3789C43.293 52.3294 43.0794 52.3047 42.8398 52.3047C42.7096 52.3047 42.5664 52.3125 42.4102 52.3281C42.2539 52.3438 42.0924 52.3672 41.9258 52.3984C41.7591 52.4297 41.5938 52.4688 41.4297 52.5156C41.2682 52.5625 41.1172 52.6185 40.9766 52.6836L40.625 51.7344C40.7995 51.6719 40.9857 51.6146 41.1836 51.5625C41.3841 51.5104 41.5885 51.4661 41.7969 51.4297C42.0052 51.3906 42.2135 51.3607 42.4219 51.3398C42.6302 51.319 42.832 51.3086 43.0273 51.3086C43.8893 51.3086 44.5299 51.5286 44.9492 51.9688C45.3685 52.4089 45.5781 53.0833 45.5781 53.9922V56H44.4219V55.5664C44.3021 55.6367 44.1706 55.7031 44.0273 55.7656C43.8867 55.8281 43.7331 55.8828 43.5664 55.9297C43.3997 55.9766 43.2201 56.013 43.0273 56.0391C42.8372 56.0677 42.6354 56.082 42.4219 56.082C42.0625 56.082 41.7461 56.043 41.4727 55.9648C41.2018 55.8867 40.9753 55.7786 40.793 55.6406C40.6107 55.5026 40.4727 55.3411 40.3789 55.1562C40.2878 54.9688 40.2422 54.7656 40.2422 54.5469ZM41.4609 54.5078C41.4609 54.5833 41.4805 54.6562 41.5195 54.7266C41.5586 54.7943 41.6211 54.8555 41.707 54.9102C41.793 54.9622 41.9023 55.0052 42.0352 55.0391C42.1706 55.0703 42.3333 55.0859 42.5234 55.0859C42.7266 55.0859 42.9232 55.0677 43.1133 55.0312C43.3034 54.9948 43.4805 54.9466 43.6445 54.8867C43.8086 54.8268 43.957 54.7578 44.0898 54.6797C44.2227 54.6016 44.3333 54.5208 44.4219 54.4375V54.2344C44.2448 54.1849 44.069 54.1432 43.8945 54.1094C43.7227 54.0755 43.5573 54.0495 43.3984 54.0312C43.2422 54.0104 43.0938 53.9961 42.9531 53.9883C42.8151 53.9805 42.694 53.9766 42.5898 53.9766C42.3737 53.9766 42.194 53.9909 42.0508 54.0195C41.9076 54.0482 41.7917 54.0872 41.7031 54.1367C41.6146 54.1836 41.5521 54.2396 41.5156 54.3047C41.4792 54.3698 41.4609 54.4375 41.4609 54.5078ZM47.1406 51.3906H48.2969V51.7812C48.5859 51.6042 48.8672 51.4818 49.1406 51.4141C49.4167 51.3438 49.6862 51.3086 49.9492 51.3086C50.3164 51.3086 50.6536 51.3672 50.9609 51.4844C51.2682 51.6016 51.5312 51.7786 51.75 52.0156C51.9193 51.8854 52.0859 51.776 52.25 51.6875C52.4141 51.5964 52.5781 51.5234 52.7422 51.4688C52.9062 51.4115 53.0729 51.3711 53.2422 51.3477C53.4115 51.3216 53.5859 51.3086 53.7656 51.3086C54.1432 51.3086 54.4857 51.3607 54.793 51.4648C55.1003 51.5664 55.362 51.7188 55.5781 51.9219C55.7969 52.125 55.9648 52.3789 56.082 52.6836C56.2018 52.9857 56.2617 53.3359 56.2617 53.7344V56H55.1094V53.9219C55.1094 53.6693 55.0729 53.444 55 53.2461C54.9297 53.0456 54.8294 52.8776 54.6992 52.7422C54.5716 52.6042 54.418 52.5 54.2383 52.4297C54.0612 52.3568 53.8659 52.3203 53.6523 52.3203C53.5352 52.3203 53.4154 52.332 53.293 52.3555C53.1706 52.3763 53.0508 52.4102 52.9336 52.457C52.819 52.5039 52.7109 52.5638 52.6094 52.6367C52.5078 52.707 52.4193 52.7904 52.3438 52.8867V56H51.1914V53.9219C51.1914 53.6693 51.1549 53.444 51.082 53.2461C51.0117 53.0456 50.9115 52.8776 50.7812 52.7422C50.6536 52.6042 50.4987 52.5 50.3164 52.4297C50.1367 52.3568 49.9388 52.3203 49.7227 52.3203C49.5898 52.3203 49.4557 52.3346 49.3203 52.3633C49.1875 52.3893 49.0586 52.4271 48.9336 52.4766C48.8112 52.526 48.6953 52.5859 48.5859 52.6562C48.4792 52.7266 48.3828 52.806 48.2969 52.8945V56H47.1406V51.3906Z" fill="white"/>
<path d="M29.9975 16.2469C26.9316 16.2469 23.9913 17.3199 21.8233 19.2297C19.6554 21.1396 18.4375 23.7298 18.4375 26.4308C18.4375 29.1317 19.6554 31.722 21.8233 33.6318C23.9913 35.5416 26.9316 36.6146 29.9975 36.6146C33.0634 36.6146 36.0037 35.5416 38.1717 33.6318C40.3396 31.722 41.5575 29.1317 41.5575 26.4308C41.5575 23.7298 40.3396 21.1396 38.1717 19.2297C36.0037 17.3199 33.0634 16.2469 29.9975 16.2469ZM29.9975 33.0445C28.0057 33.0445 26.0955 32.3475 24.6871 31.1067C23.2787 29.866 22.4875 28.1832 22.4875 26.4286C22.4875 24.6739 23.2787 22.9911 24.6871 21.7504C26.0955 20.5096 28.0057 19.8126 29.9975 19.8126C31.9893 19.8126 33.8995 20.5096 35.3079 21.7504C36.7163 22.9911 37.5075 24.6739 37.5075 26.4286C37.5075 28.1832 36.7163 29.866 35.3079 31.1067C33.8995 32.3475 31.9893 33.0445 29.9975 33.0445Z" fill="white"/>
<path d="M42.0149 18.2467C43.5034 18.2467 44.7099 17.1838 44.7099 15.8726C44.7099 14.5614 43.5034 13.4984 42.0149 13.4984C40.5265 13.4984 39.3199 14.5614 39.3199 15.8726C39.3199 17.1838 40.5265 18.2467 42.0149 18.2467Z" fill="white"/>
<path d="M51.3325 13.4588C50.7538 12.1421 49.8693 10.9465 48.7358 9.94829C47.6024 8.95012 46.2448 8.17144 44.75 7.66209C43.0008 7.08365 41.153 6.77088 39.285 6.73709C36.8775 6.64459 36.115 6.61816 30.01 6.61816C23.905 6.61816 23.1225 6.61816 20.735 6.73709C18.8685 6.76915 17.0219 7.08199 15.275 7.66209C13.7798 8.17085 12.4219 8.94932 11.2883 9.94757C10.1548 10.9458 9.27058 12.1418 8.6925 13.4588C8.03577 14.9996 7.68154 16.6276 7.645 18.2732C7.5375 20.3919 7.505 21.0636 7.505 26.444C7.505 31.8222 7.505 32.5072 7.645 34.6148C7.6825 36.2622 8.035 37.8876 8.6925 39.4314C9.2722 40.7479 10.1572 41.9434 11.2911 42.9415C12.4249 43.9397 13.7827 44.7184 15.2775 45.2281C17.0211 45.8298 18.8684 46.165 20.74 46.2192C23.1475 46.3117 23.91 46.3403 30.015 46.3403C36.12 46.3403 36.9025 46.3403 39.29 46.2192C41.1578 46.1857 43.0056 45.8737 44.755 45.2964C46.2494 44.7858 47.6066 44.0065 48.7399 43.008C49.8733 42.0096 50.758 40.814 51.3375 39.4975C51.995 37.9558 52.3475 36.3305 52.385 34.6831C52.4925 32.5644 52.525 31.8927 52.525 26.5123C52.525 21.1319 52.525 20.4491 52.385 18.3414C52.3559 16.6726 51.9998 15.0208 51.3325 13.4588ZM48.2875 34.4519C48.2714 35.7211 48.0084 36.9785 47.51 38.1695C47.1346 39.0259 46.5598 39.8036 45.8227 40.4526C45.0856 41.1016 44.2024 41.6075 43.23 41.9377C41.8931 42.3748 40.4809 42.6065 39.055 42.6227C36.68 42.7196 36.01 42.7438 29.92 42.7438C23.825 42.7438 23.2025 42.7438 20.7825 42.6227C19.3573 42.6073 17.9458 42.3756 16.61 41.9377C15.6342 41.6096 14.7475 41.1046 14.0072 40.4555C13.267 39.8063 12.6896 39.0276 12.3125 38.1695C11.8211 36.9913 11.5583 35.7487 11.535 34.4937C11.4275 32.4014 11.4025 31.8112 11.4025 26.4462C11.4025 21.079 11.4025 20.5306 11.535 18.3965C11.5512 17.128 11.8141 15.8713 12.3125 14.6811C13.075 12.9434 14.6375 11.5757 16.61 10.9106C17.9465 10.4748 19.3576 10.2432 20.7825 10.2257C23.16 10.131 23.8275 10.1045 29.92 10.1045C36.0125 10.1045 36.6375 10.1045 39.055 10.2257C40.481 10.2408 41.8934 10.4725 43.23 10.9106C44.2023 11.2416 45.0854 11.748 45.8224 12.3973C46.5595 13.0466 47.1343 13.8245 47.51 14.6811C48.0014 15.8592 48.2642 17.1019 48.2875 18.3569C48.395 20.4513 48.4225 21.0394 48.4225 26.4066C48.4225 31.7716 48.4225 32.3486 48.315 34.4541H48.2875V34.4519Z" fill="white"/>
</svg>
