<svg width="40" height="46" viewBox="0 0 40 46" fill="none" xmlns="http://www.w3.org/2000/svg">
    <path
        d="M12.5 10.8334C12.5 14.9684 15.865 18.3334 20 18.3334C24.135 18.3334 27.5 14.9684 27.5 10.8334C27.5 6.69837 24.135 3.33337 20 3.33337C15.865 3.33337 12.5 6.69837 12.5 10.8334ZM33.3333 35H35V33.3334C35 26.9017 29.765 21.6667 23.3333 21.6667H16.6667C10.2333 21.6667 5 26.9017 5 33.3334V35H33.3333Z"
        fill="white" />
    <path
        d="M5.86719 36.8945H7.10547V41.9141H10.6562V43H5.86719V36.8945ZM11.4375 40.6953C11.4375 40.3646 11.5039 40.0547 11.6367 39.7656C11.7721 39.4766 11.9635 39.224 12.2109 39.0078C12.4609 38.7917 12.7617 38.6211 13.1133 38.4961C13.4674 38.3711 13.8646 38.3086 14.3047 38.3086C14.7448 38.3086 15.1406 38.3711 15.4922 38.4961C15.8464 38.6211 16.1471 38.7917 16.3945 39.0078C16.6445 39.224 16.8359 39.4766 16.9688 39.7656C17.1042 40.0547 17.1719 40.3646 17.1719 40.6953C17.1719 41.026 17.1042 41.3359 16.9688 41.625C16.8359 41.9141 16.6445 42.1667 16.3945 42.3828C16.1471 42.599 15.8464 42.7695 15.4922 42.8945C15.1406 43.0195 14.7448 43.082 14.3047 43.082C13.8646 43.082 13.4674 43.0195 13.1133 42.8945C12.7617 42.7695 12.4609 42.599 12.2109 42.3828C11.9635 42.1667 11.7721 41.9141 11.6367 41.625C11.5039 41.3359 11.4375 41.026 11.4375 40.6953ZM12.6523 40.6953C12.6523 40.8802 12.6888 41.056 12.7617 41.2227C12.8372 41.3867 12.9453 41.5326 13.0859 41.6602C13.2292 41.7852 13.4023 41.8854 13.6055 41.9609C13.8112 42.0339 14.0443 42.0703 14.3047 42.0703C14.5651 42.0703 14.7969 42.0339 15 41.9609C15.2057 41.8854 15.3789 41.7852 15.5195 41.6602C15.6628 41.5326 15.7708 41.3867 15.8438 41.2227C15.9193 41.056 15.957 40.8802 15.957 40.6953C15.957 40.5104 15.9193 40.3346 15.8438 40.168C15.7708 40.0013 15.6628 39.8555 15.5195 39.7305C15.3789 39.6029 15.2057 39.5026 15 39.4297C14.7969 39.3542 14.5651 39.3164 14.3047 39.3164C14.0443 39.3164 13.8112 39.3542 13.6055 39.4297C13.4023 39.5026 13.2292 39.6029 13.0859 39.7305C12.9453 39.8555 12.8372 40.0013 12.7617 40.168C12.6888 40.3346 12.6523 40.5104 12.6523 40.6953ZM19.0625 43.7812C19.2083 43.8333 19.3568 43.8763 19.5078 43.9102C19.6589 43.9466 19.8047 43.9753 19.9453 43.9961C20.0885 44.0195 20.2253 44.0352 20.3555 44.043C20.4857 44.0534 20.6016 44.0586 20.7031 44.0586C21.0104 44.0586 21.2773 44.0208 21.5039 43.9453C21.7331 43.8724 21.9232 43.7734 22.0742 43.6484C22.2279 43.5234 22.3424 43.3776 22.418 43.2109C22.4935 43.0469 22.5312 42.8724 22.5312 42.6875V42.4883C22.4323 42.556 22.3164 42.6211 22.1836 42.6836C22.0508 42.7461 21.9049 42.8008 21.7461 42.8477C21.5872 42.8945 21.418 42.9323 21.2383 42.9609C21.0612 42.9896 20.8776 43.0039 20.6875 43.0039C20.3099 43.0039 19.9609 42.9479 19.6406 42.8359C19.3203 42.7214 19.043 42.5625 18.8086 42.3594C18.5742 42.1536 18.3906 41.9076 18.2578 41.6211C18.1276 41.3346 18.0625 41.0169 18.0625 40.668C18.0625 40.3112 18.1315 39.9883 18.2695 39.6992C18.4076 39.4076 18.5977 39.1589 18.8398 38.9531C19.0846 38.7474 19.3737 38.5885 19.707 38.4766C20.0404 38.3646 20.4023 38.3086 20.793 38.3086C20.9596 38.3086 21.125 38.319 21.2891 38.3398C21.4531 38.3607 21.6094 38.3893 21.7578 38.4258C21.9089 38.4622 22.0495 38.5065 22.1797 38.5586C22.3125 38.6081 22.4297 38.6628 22.5312 38.7227V38.3906H23.6875V42.4727C23.6875 42.8919 23.6237 43.263 23.4961 43.5859C23.3685 43.9089 23.181 44.1797 22.9336 44.3984C22.6888 44.6198 22.3841 44.7865 22.0195 44.8984C21.6549 45.013 21.237 45.0703 20.7656 45.0703C20.5964 45.0703 20.4206 45.0625 20.2383 45.0469C20.056 45.0339 19.8724 45.013 19.6875 44.9844C19.5052 44.9583 19.3242 44.9258 19.1445 44.8867C18.9674 44.8503 18.7969 44.8073 18.6328 44.7578L19.0625 43.7812ZM19.2773 40.6562C19.2773 40.8411 19.3138 41.0156 19.3867 41.1797C19.4622 41.3411 19.569 41.4831 19.707 41.6055C19.8451 41.7253 20.0117 41.8203 20.207 41.8906C20.4023 41.9583 20.6224 41.9922 20.8672 41.9922C21.026 41.9922 21.1836 41.9779 21.3398 41.9492C21.4987 41.918 21.6497 41.875 21.793 41.8203C21.9388 41.7656 22.0742 41.6992 22.1992 41.6211C22.3268 41.543 22.4375 41.4557 22.5312 41.3594V39.8398C22.4141 39.7461 22.2904 39.6667 22.1602 39.6016C22.0299 39.5365 21.8971 39.4831 21.7617 39.4414C21.6263 39.3997 21.4896 39.3698 21.3516 39.3516C21.2135 39.3307 21.0794 39.3203 20.9492 39.3203C20.6836 39.3203 20.4466 39.3555 20.2383 39.4258C20.0326 39.4961 19.8581 39.5924 19.7148 39.7148C19.5742 39.8346 19.4661 39.9753 19.3906 40.1367C19.3151 40.2982 19.2773 40.4714 19.2773 40.6562ZM25.6133 37.7617C25.4987 37.7617 25.3945 37.7461 25.3008 37.7148C25.2096 37.681 25.1315 37.6367 25.0664 37.582C25.0013 37.5247 24.9505 37.4596 24.9141 37.3867C24.8802 37.3112 24.8633 37.2318 24.8633 37.1484C24.8633 37.0625 24.8802 36.9831 24.9141 36.9102C24.9505 36.8346 25.0013 36.7695 25.0664 36.7148C25.1315 36.6602 25.2096 36.6172 25.3008 36.5859C25.3945 36.5521 25.4987 36.5352 25.6133 36.5352C25.7305 36.5352 25.8346 36.5521 25.9258 36.5859C26.0195 36.6172 26.099 36.6602 26.1641 36.7148C26.2292 36.7695 26.2786 36.8346 26.3125 36.9102C26.349 36.9831 26.3672 37.0625 26.3672 37.1484C26.3672 37.2318 26.349 37.3112 26.3125 37.3867C26.2786 37.4596 26.2292 37.5247 26.1641 37.582C26.099 37.6367 26.0195 37.681 25.9258 37.7148C25.8346 37.7461 25.7305 37.7617 25.6133 37.7617ZM25.0352 38.3906H26.1914V43H25.0352V38.3906ZM27.6758 38.3906H28.832V38.7812C29.1393 38.6068 29.4323 38.4844 29.7109 38.4141C29.9922 38.3438 30.2669 38.3086 30.5352 38.3086C30.8867 38.3086 31.2122 38.3607 31.5117 38.4648C31.8112 38.5664 32.0703 38.7188 32.2891 38.9219C32.5078 39.125 32.6784 39.3789 32.8008 39.6836C32.9258 39.9857 32.9883 40.3359 32.9883 40.7344V43H31.8359V40.9219C31.8359 40.6693 31.7995 40.444 31.7266 40.2461C31.6562 40.0456 31.5534 39.8776 31.418 39.7422C31.2852 39.6042 31.1224 39.5 30.9297 39.4297C30.7396 39.3568 30.526 39.3203 30.2891 39.3203C30.1641 39.3203 30.0352 39.3333 29.9023 39.3594C29.7721 39.3854 29.6432 39.4232 29.5156 39.4727C29.3906 39.5195 29.2695 39.5794 29.1523 39.6523C29.0352 39.7227 28.9284 39.8034 28.832 39.8945V43H27.6758V38.3906Z"
        fill="white" />
</svg>