<svg width="71" height="44" viewBox="0 0 71 44" fill="none" xmlns="http://www.w3.org/2000/svg">
<path d="M0.710938 36.8945H1.95703V43H0.710938V36.8945ZM3.39453 38.3906H4.55078V38.7812C4.85807 38.6068 5.15104 38.4844 5.42969 38.4141C5.71094 38.3438 5.98568 38.3086 6.25391 38.3086C6.60547 38.3086 6.93099 38.3607 7.23047 38.4648C7.52995 38.5664 7.78906 38.7188 8.00781 38.9219C8.22656 39.125 8.39714 39.3789 8.51953 39.6836C8.64453 39.9857 8.70703 40.3359 8.70703 40.7344V43H7.55469V40.9219C7.55469 40.6693 7.51823 40.444 7.44531 40.2461C7.375 40.0456 7.27214 39.8776 7.13672 39.7422C7.00391 39.6042 6.84115 39.5 6.64844 39.4297C6.45833 39.3568 6.24479 39.3203 6.00781 39.3203C5.88281 39.3203 5.75391 39.3333 5.62109 39.3594C5.49089 39.3854 5.36198 39.4232 5.23438 39.4727C5.10938 39.5195 4.98828 39.5794 4.87109 39.6523C4.75391 39.7227 4.64714 39.8034 4.55078 39.8945V43H3.39453V38.3906ZM10.7383 37.7617C10.6237 37.7617 10.5195 37.7461 10.4258 37.7148C10.3346 37.681 10.2565 37.6367 10.1914 37.582C10.1263 37.5247 10.0755 37.4596 10.0391 37.3867C10.0052 37.3112 9.98828 37.2318 9.98828 37.1484C9.98828 37.0625 10.0052 36.9831 10.0391 36.9102C10.0755 36.8346 10.1263 36.7695 10.1914 36.7148C10.2565 36.6602 10.3346 36.6172 10.4258 36.5859C10.5195 36.5521 10.6237 36.5352 10.7383 36.5352C10.8555 36.5352 10.9596 36.5521 11.0508 36.5859C11.1445 36.6172 11.224 36.6602 11.2891 36.7148C11.3542 36.7695 11.4036 36.8346 11.4375 36.9102C11.474 36.9831 11.4922 37.0625 11.4922 37.1484C11.4922 37.2318 11.474 37.3112 11.4375 37.3867C11.4036 37.4596 11.3542 37.5247 11.2891 37.582C11.224 37.6367 11.1445 37.681 11.0508 37.7148C10.9596 37.7461 10.8555 37.7617 10.7383 37.7617ZM10.1602 38.3906H11.3164V43H10.1602V38.3906ZM12.5234 40.707C12.5234 40.3685 12.5846 40.0534 12.707 39.7617C12.832 39.4674 13.013 39.2135 13.25 39C13.4896 38.7839 13.7812 38.6146 14.125 38.4922C14.4714 38.3698 14.8659 38.3086 15.3086 38.3086C15.5013 38.3086 15.6953 38.3203 15.8906 38.3438C16.0859 38.3672 16.2734 38.401 16.4531 38.4453C16.6354 38.487 16.806 38.5378 16.9648 38.5977C17.1237 38.6549 17.2617 38.7188 17.3789 38.7891L16.8438 39.6602C16.5911 39.543 16.3516 39.457 16.125 39.4023C15.901 39.3477 15.6732 39.3203 15.4414 39.3203C15.1758 39.3203 14.9375 39.3555 14.7266 39.4258C14.5156 39.4935 14.3359 39.5898 14.1875 39.7148C14.0417 39.8372 13.9297 39.9831 13.8516 40.1523C13.776 40.319 13.7383 40.5013 13.7383 40.6992C13.7383 40.8971 13.7786 41.0807 13.8594 41.25C13.9427 41.4167 14.0586 41.5612 14.207 41.6836C14.3581 41.8034 14.5391 41.8984 14.75 41.9688C14.9635 42.0365 15.2005 42.0703 15.4609 42.0703C15.7474 42.0703 16.0169 42.0299 16.2695 41.9492C16.5247 41.8685 16.7617 41.7604 16.9805 41.625L17.5156 42.4961C17.3776 42.5794 17.2279 42.6576 17.0664 42.7305C16.9049 42.8008 16.7318 42.862 16.5469 42.9141C16.3646 42.9661 16.1719 43.0065 15.9688 43.0352C15.7682 43.0664 15.5599 43.082 15.3438 43.082C14.9036 43.082 14.5091 43.0221 14.1602 42.9023C13.8112 42.7826 13.5156 42.6172 13.2734 42.4062C13.0312 42.1927 12.8451 41.9414 12.7148 41.6523C12.5872 41.3633 12.5234 41.0482 12.5234 40.707ZM19.3711 37.7617C19.2565 37.7617 19.1523 37.7461 19.0586 37.7148C18.9674 37.681 18.8893 37.6367 18.8242 37.582C18.7591 37.5247 18.7083 37.4596 18.6719 37.3867C18.638 37.3112 18.6211 37.2318 18.6211 37.1484C18.6211 37.0625 18.638 36.9831 18.6719 36.9102C18.7083 36.8346 18.7591 36.7695 18.8242 36.7148C18.8893 36.6602 18.9674 36.6172 19.0586 36.5859C19.1523 36.5521 19.2565 36.5352 19.3711 36.5352C19.4883 36.5352 19.5924 36.5521 19.6836 36.5859C19.7773 36.6172 19.8568 36.6602 19.9219 36.7148C19.987 36.7695 20.0365 36.8346 20.0703 36.9102C20.1068 36.9831 20.125 37.0625 20.125 37.1484C20.125 37.2318 20.1068 37.3112 20.0703 37.3867C20.0365 37.4596 19.987 37.5247 19.9219 37.582C19.8568 37.6367 19.7773 37.681 19.6836 37.7148C19.5924 37.7461 19.4883 37.7617 19.3711 37.7617ZM18.793 38.3906H19.9492V43H18.793V38.3906ZM21.2148 41.5469C21.2148 41.3255 21.263 41.1237 21.3594 40.9414C21.4557 40.7591 21.6003 40.6029 21.793 40.4727C21.9857 40.3398 22.2253 40.2383 22.5117 40.168C22.8008 40.0951 23.1367 40.0586 23.5195 40.0586C23.8034 40.0586 24.1016 40.0794 24.4141 40.1211C24.7292 40.1628 25.0534 40.2266 25.3867 40.3125C25.3737 40.1667 25.3294 40.0326 25.2539 39.9102C25.1784 39.7852 25.0729 39.6784 24.9375 39.5898C24.8047 39.4987 24.6432 39.4284 24.4531 39.3789C24.2656 39.3294 24.0521 39.3047 23.8125 39.3047C23.6823 39.3047 23.5391 39.3125 23.3828 39.3281C23.2266 39.3438 23.0651 39.3672 22.8984 39.3984C22.7318 39.4297 22.5664 39.4688 22.4023 39.5156C22.2409 39.5625 22.0898 39.6185 21.9492 39.6836L21.5977 38.7344C21.7721 38.6719 21.9583 38.6146 22.1562 38.5625C22.3568 38.5104 22.5612 38.4661 22.7695 38.4297C22.9779 38.3906 23.1862 38.3607 23.3945 38.3398C23.6029 38.319 23.8047 38.3086 24 38.3086C24.862 38.3086 25.5026 38.5286 25.9219 38.9688C26.3411 39.4089 26.5508 40.0833 26.5508 40.9922V43H25.3945V42.5664C25.2747 42.6367 25.1432 42.7031 25 42.7656C24.8594 42.8281 24.7057 42.8828 24.5391 42.9297C24.3724 42.9766 24.1927 43.013 24 43.0391C23.8099 43.0677 23.6081 43.082 23.3945 43.082C23.0352 43.082 22.7188 43.043 22.4453 42.9648C22.1745 42.8867 21.9479 42.7786 21.7656 42.6406C21.5833 42.5026 21.4453 42.3411 21.3516 42.1562C21.2604 41.9688 21.2148 41.7656 21.2148 41.5469ZM22.4336 41.5078C22.4336 41.5833 22.4531 41.6562 22.4922 41.7266C22.5312 41.7943 22.5938 41.8555 22.6797 41.9102C22.7656 41.9622 22.875 42.0052 23.0078 42.0391C23.1432 42.0703 23.306 42.0859 23.4961 42.0859C23.6992 42.0859 23.8958 42.0677 24.0859 42.0312C24.276 41.9948 24.4531 41.9466 24.6172 41.8867C24.7812 41.8268 24.9297 41.7578 25.0625 41.6797C25.1953 41.6016 25.306 41.5208 25.3945 41.4375V41.2344C25.2174 41.1849 25.0417 41.1432 24.8672 41.1094C24.6953 41.0755 24.5299 41.0495 24.3711 41.0312C24.2148 41.0104 24.0664 40.9961 23.9258 40.9883C23.7878 40.9805 23.6667 40.9766 23.5625 40.9766C23.3464 40.9766 23.1667 40.9909 23.0234 41.0195C22.8802 41.0482 22.7643 41.0872 22.6758 41.1367C22.5872 41.1836 22.5247 41.2396 22.4883 41.3047C22.4518 41.3698 22.4336 41.4375 22.4336 41.5078ZM28.082 38.3906H29.2383V39.0547C29.4935 38.8646 29.763 38.7005 30.0469 38.5625C30.3307 38.4245 30.6133 38.319 30.8945 38.2461L31.2344 39.3047C30.7891 39.349 30.3971 39.4492 30.0586 39.6055C29.7227 39.7591 29.4492 39.9766 29.2383 40.2578V43H28.082V38.3906ZM35.1836 41.1836C35.4049 41.3086 35.6289 41.4219 35.8555 41.5234C36.0846 41.6224 36.3216 41.707 36.5664 41.7773C36.8112 41.8451 37.0677 41.8971 37.3359 41.9336C37.6068 41.9701 37.8945 41.9883 38.1992 41.9883C38.5664 41.9883 38.8789 41.9648 39.1367 41.918C39.3945 41.8685 39.6042 41.8021 39.7656 41.7188C39.9297 41.6328 40.0482 41.5312 40.1211 41.4141C40.1966 41.2969 40.2344 41.1693 40.2344 41.0312C40.2344 40.8099 40.1419 40.6354 39.957 40.5078C39.7721 40.3776 39.487 40.3125 39.1016 40.3125C38.9323 40.3125 38.7539 40.3242 38.5664 40.3477C38.3789 40.3685 38.1888 40.3919 37.9961 40.418C37.806 40.444 37.6172 40.4688 37.4297 40.4922C37.2448 40.513 37.0703 40.5234 36.9062 40.5234C36.6328 40.5234 36.3698 40.4883 36.1172 40.418C35.8672 40.3477 35.6445 40.2422 35.4492 40.1016C35.2565 39.9609 35.1029 39.7852 34.9883 39.5742C34.8737 39.3633 34.8164 39.1172 34.8164 38.8359C34.8164 38.6693 34.8385 38.5039 34.8828 38.3398C34.9297 38.1758 35.0026 38.0195 35.1016 37.8711C35.2031 37.7201 35.3333 37.5807 35.4922 37.4531C35.651 37.3229 35.8424 37.2109 36.0664 37.1172C36.293 37.0234 36.5534 36.9505 36.8477 36.8984C37.1445 36.8438 37.4818 36.8164 37.8594 36.8164C38.1328 36.8164 38.4076 36.832 38.6836 36.8633C38.9596 36.8919 39.2279 36.9336 39.4883 36.9883C39.7513 37.043 40.0039 37.1094 40.2461 37.1875C40.4883 37.263 40.7135 37.3477 40.9219 37.4414L40.3789 38.4414C40.207 38.3659 40.0221 38.2969 39.8242 38.2344C39.6263 38.1693 39.4193 38.1133 39.2031 38.0664C38.987 38.0195 38.763 37.9831 38.5312 37.957C38.3021 37.9284 38.0677 37.9141 37.8281 37.9141C37.487 37.9141 37.2057 37.9388 36.9844 37.9883C36.7656 38.0378 36.5911 38.1016 36.4609 38.1797C36.3307 38.2552 36.2396 38.3411 36.1875 38.4375C36.138 38.5312 36.1133 38.625 36.1133 38.7188C36.1133 38.901 36.1953 39.0508 36.3594 39.168C36.5234 39.2826 36.7734 39.3398 37.1094 39.3398C37.2448 39.3398 37.3997 39.3307 37.5742 39.3125C37.7513 39.2917 37.9362 39.2695 38.1289 39.2461C38.3242 39.2227 38.5221 39.2018 38.7227 39.1836C38.9258 39.1628 39.1224 39.1523 39.3125 39.1523C39.6719 39.1523 39.9896 39.1927 40.2656 39.2734C40.5443 39.3542 40.7773 39.4701 40.9648 39.6211C41.1523 39.7695 41.2943 39.9505 41.3906 40.1641C41.487 40.375 41.5352 40.612 41.5352 40.875C41.5352 41.2266 41.4531 41.5404 41.2891 41.8164C41.1276 42.0898 40.8958 42.3216 40.5938 42.5117C40.2943 42.6992 39.9323 42.8424 39.5078 42.9414C39.0833 43.0378 38.6107 43.0859 38.0898 43.0859C37.7461 43.0859 37.4102 43.0638 37.082 43.0195C36.7539 42.9779 36.4388 42.918 36.1367 42.8398C35.8372 42.7591 35.5508 42.6641 35.2773 42.5547C35.0065 42.4427 34.7552 42.3203 34.5234 42.1875L35.1836 41.1836ZM42.5352 40.6797C42.5352 40.3672 42.599 40.069 42.7266 39.7852C42.8542 39.4987 43.0378 39.2461 43.2773 39.0273C43.5169 38.8086 43.8099 38.6341 44.1562 38.5039C44.5052 38.3737 44.901 38.3086 45.3438 38.3086C45.7839 38.3086 46.1797 38.375 46.5312 38.5078C46.8854 38.638 47.1849 38.8177 47.4297 39.0469C47.6771 39.276 47.8659 39.5456 47.9961 39.8555C48.1289 40.1654 48.1953 40.4974 48.1953 40.8516C48.1953 40.8958 48.194 40.944 48.1914 40.9961C48.1914 41.0456 48.1888 41.0911 48.1836 41.1328H43.8242C43.8737 41.2708 43.9531 41.3971 44.0625 41.5117C44.1745 41.6263 44.3138 41.7253 44.4805 41.8086C44.6471 41.8919 44.8398 41.957 45.0586 42.0039C45.2773 42.0482 45.5195 42.0703 45.7852 42.0703C46.0508 42.0703 46.3151 42.043 46.5781 41.9883C46.8411 41.931 47.0924 41.8594 47.332 41.7734L47.7227 42.6562C47.5716 42.7266 47.418 42.7891 47.2617 42.8438C47.1081 42.8958 46.9466 42.9401 46.7773 42.9766C46.6107 43.0104 46.4349 43.0365 46.25 43.0547C46.0677 43.0729 45.875 43.082 45.6719 43.082C45.1536 43.082 44.6992 43.0195 44.3086 42.8945C43.918 42.7695 43.5911 42.599 43.3281 42.3828C43.0651 42.1667 42.8672 41.9128 42.7344 41.6211C42.6016 41.3294 42.5352 41.0156 42.5352 40.6797ZM46.9688 40.2305C46.9271 40.1029 46.862 39.9844 46.7734 39.875C46.6875 39.763 46.5794 39.6667 46.4492 39.5859C46.319 39.5026 46.168 39.4375 45.9961 39.3906C45.8242 39.3438 45.6354 39.3203 45.4297 39.3203C45.2109 39.3203 45.0117 39.3451 44.832 39.3945C44.6523 39.444 44.4948 39.5104 44.3594 39.5938C44.224 39.6771 44.1107 39.7734 44.0195 39.8828C43.931 39.9922 43.8659 40.1081 43.8242 40.2305H46.9688ZM49.625 41.5859C49.9375 41.7734 50.2812 41.9115 50.6562 42C51.0312 42.0885 51.4154 42.1328 51.8086 42.1328C52.0742 42.1328 52.2956 42.1146 52.4727 42.0781C52.6497 42.0417 52.7917 41.9948 52.8984 41.9375C53.0052 41.8802 53.0807 41.8151 53.125 41.7422C53.1693 41.6693 53.1914 41.5951 53.1914 41.5195C53.1914 41.4102 53.1432 41.3164 53.0469 41.2383C52.9531 41.1602 52.7969 41.1211 52.5781 41.1211C52.4766 41.1211 52.3672 41.1276 52.25 41.1406C52.1328 41.1536 52.0091 41.168 51.8789 41.1836C51.7513 41.1966 51.6172 41.2096 51.4766 41.2227C51.3385 41.2357 51.1979 41.2422 51.0547 41.2422C50.7422 41.2422 50.4753 41.2083 50.2539 41.1406C50.0352 41.0729 49.8568 40.9805 49.7188 40.8633C49.5807 40.7461 49.4805 40.6081 49.418 40.4492C49.3555 40.2878 49.3242 40.1146 49.3242 39.9297C49.3242 39.6953 49.3789 39.4792 49.4883 39.2812C49.5977 39.0833 49.7539 38.9128 49.957 38.7695C50.1602 38.6237 50.4049 38.5104 50.6914 38.4297C50.9805 38.349 51.3021 38.3086 51.6562 38.3086C51.8411 38.3086 52.0339 38.3203 52.2344 38.3438C52.4375 38.3646 52.6367 38.3932 52.832 38.4297C53.0273 38.4661 53.2148 38.5091 53.3945 38.5586C53.5742 38.6055 53.7331 38.6562 53.8711 38.7109L53.5078 39.6094C53.2135 39.5 52.9193 39.4141 52.625 39.3516C52.3333 39.2865 52.0326 39.2539 51.7227 39.2539C51.5065 39.2539 51.3229 39.2708 51.1719 39.3047C51.0234 39.3359 50.9023 39.3789 50.8086 39.4336C50.7148 39.4857 50.6458 39.5469 50.6016 39.6172C50.5599 39.6849 50.5391 39.7565 50.5391 39.832C50.5391 39.8867 50.5495 39.9362 50.5703 39.9805C50.5938 40.0247 50.6302 40.0638 50.6797 40.0977C50.7318 40.1289 50.7982 40.1536 50.8789 40.1719C50.9622 40.1875 51.0638 40.1953 51.1836 40.1953C51.293 40.1953 51.4089 40.1888 51.5312 40.1758C51.6536 40.1628 51.7812 40.1497 51.9141 40.1367C52.0469 40.1211 52.1836 40.1068 52.3242 40.0938C52.4674 40.0807 52.6133 40.0742 52.7617 40.0742C53.0378 40.0742 53.2786 40.1068 53.4844 40.1719C53.6927 40.237 53.8646 40.3281 54 40.4453C54.1354 40.5625 54.237 40.7005 54.3047 40.8594C54.3724 41.0182 54.4062 41.1914 54.4062 41.3789C54.4062 41.6211 54.3503 41.8464 54.2383 42.0547C54.1263 42.263 53.9596 42.444 53.7383 42.5977C53.5169 42.7487 53.2409 42.8672 52.9102 42.9531C52.582 43.0391 52.2018 43.082 51.7695 43.082C51.5039 43.082 51.2474 43.0651 51 43.0312C50.7526 43 50.5169 42.957 50.293 42.9023C50.069 42.8451 49.8581 42.7786 49.6602 42.7031C49.4648 42.6276 49.2865 42.5469 49.125 42.4609L49.625 41.5859ZM56.0586 37.7617C55.944 37.7617 55.8398 37.7461 55.7461 37.7148C55.6549 37.681 55.5768 37.6367 55.5117 37.582C55.4466 37.5247 55.3958 37.4596 55.3594 37.3867C55.3255 37.3112 55.3086 37.2318 55.3086 37.1484C55.3086 37.0625 55.3255 36.9831 55.3594 36.9102C55.3958 36.8346 55.4466 36.7695 55.5117 36.7148C55.5768 36.6602 55.6549 36.6172 55.7461 36.5859C55.8398 36.5521 55.944 36.5352 56.0586 36.5352C56.1758 36.5352 56.2799 36.5521 56.3711 36.5859C56.4648 36.6172 56.5443 36.6602 56.6094 36.7148C56.6745 36.7695 56.724 36.8346 56.7578 36.9102C56.7943 36.9831 56.8125 37.0625 56.8125 37.1484C56.8125 37.2318 56.7943 37.3112 56.7578 37.3867C56.724 37.4596 56.6745 37.5247 56.6094 37.582C56.5443 37.6367 56.4648 37.681 56.3711 37.7148C56.2799 37.7461 56.1758 37.7617 56.0586 37.7617ZM55.4805 38.3906H56.6367V43H55.4805V38.3906ZM57.8438 40.6953C57.8438 40.3646 57.9102 40.0547 58.043 39.7656C58.1784 39.4766 58.3698 39.224 58.6172 39.0078C58.8672 38.7917 59.168 38.6211 59.5195 38.4961C59.8737 38.3711 60.2708 38.3086 60.7109 38.3086C61.151 38.3086 61.5469 38.3711 61.8984 38.4961C62.2526 38.6211 62.5534 38.7917 62.8008 39.0078C63.0508 39.224 63.2422 39.4766 63.375 39.7656C63.5104 40.0547 63.5781 40.3646 63.5781 40.6953C63.5781 41.026 63.5104 41.3359 63.375 41.625C63.2422 41.9141 63.0508 42.1667 62.8008 42.3828C62.5534 42.599 62.2526 42.7695 61.8984 42.8945C61.5469 43.0195 61.151 43.082 60.7109 43.082C60.2708 43.082 59.8737 43.0195 59.5195 42.8945C59.168 42.7695 58.8672 42.599 58.6172 42.3828C58.3698 42.1667 58.1784 41.9141 58.043 41.625C57.9102 41.3359 57.8438 41.026 57.8438 40.6953ZM59.0586 40.6953C59.0586 40.8802 59.0951 41.056 59.168 41.2227C59.2435 41.3867 59.3516 41.5326 59.4922 41.6602C59.6354 41.7852 59.8086 41.8854 60.0117 41.9609C60.2174 42.0339 60.4505 42.0703 60.7109 42.0703C60.9714 42.0703 61.2031 42.0339 61.4062 41.9609C61.612 41.8854 61.7852 41.7852 61.9258 41.6602C62.069 41.5326 62.1771 41.3867 62.25 41.2227C62.3255 41.056 62.3633 40.8802 62.3633 40.6953C62.3633 40.5104 62.3255 40.3346 62.25 40.168C62.1771 40.0013 62.069 39.8555 61.9258 39.7305C61.7852 39.6029 61.612 39.5026 61.4062 39.4297C61.2031 39.3542 60.9714 39.3164 60.7109 39.3164C60.4505 39.3164 60.2174 39.3542 60.0117 39.4297C59.8086 39.5026 59.6354 39.6029 59.4922 39.7305C59.3516 39.8555 59.2435 40.0013 59.168 40.168C59.0951 40.3346 59.0586 40.5104 59.0586 40.6953ZM59.1562 37.0312L61.8359 35.7773L62.2695 36.6719L59.543 37.8398L59.1562 37.0312ZM64.7461 38.3906H65.9023V38.7812C66.2096 38.6068 66.5026 38.4844 66.7812 38.4141C67.0625 38.3438 67.3372 38.3086 67.6055 38.3086C67.957 38.3086 68.2826 38.3607 68.582 38.4648C68.8815 38.5664 69.1406 38.7188 69.3594 38.9219C69.5781 39.125 69.7487 39.3789 69.8711 39.6836C69.9961 39.9857 70.0586 40.3359 70.0586 40.7344V43H68.9062V40.9219C68.9062 40.6693 68.8698 40.444 68.7969 40.2461C68.7266 40.0456 68.6237 39.8776 68.4883 39.7422C68.3555 39.6042 68.1927 39.5 68 39.4297C67.8099 39.3568 67.5964 39.3203 67.3594 39.3203C67.2344 39.3203 67.1055 39.3333 66.9727 39.3594C66.8424 39.3854 66.7135 39.4232 66.5859 39.4727C66.4609 39.5195 66.3398 39.5794 66.2227 39.6523C66.1055 39.7227 65.9987 39.8034 65.9023 39.8945V43H64.7461V38.3906Z" fill="white"/>
<path d="M26.5 10.8334C26.5 14.9684 29.865 18.3334 34 18.3334C38.135 18.3334 41.5 14.9684 41.5 10.8334C41.5 6.69837 38.135 3.33337 34 3.33337C29.865 3.33337 26.5 6.69837 26.5 10.8334ZM47.3333 35H49V33.3334C49 26.9017 43.765 21.6667 37.3333 21.6667H30.6667C24.2333 21.6667 19 26.9017 19 33.3334V35H47.3333Z" fill="white"/>
</svg>
