<svg width="60" height="52" viewBox="0 0 60 52" fill="none" xmlns="http://www.w3.org/2000/svg">
    <path
        d="M53.9825 15.6066C53.6977 14.6909 53.1412 13.8559 52.3684 13.1846C51.5956 12.5133 50.6333 12.0291 49.5775 11.7802C45.6625 10.8486 30 10.8334 30 10.8334C30 10.8334 14.34 10.8182 10.4225 11.7087C9.36728 11.969 8.40702 12.4601 7.63388 13.1347C6.86074 13.8093 6.30068 14.6448 6.00747 15.5611C4.97497 18.9541 4.96497 25.9914 4.96497 25.9914C4.96497 25.9914 4.95497 33.0634 5.97997 36.4217C6.55497 38.2786 8.24247 39.7454 10.3875 40.2459C14.3425 41.1776 29.9625 41.1927 29.9625 41.1927C29.9625 41.1927 45.625 41.2079 49.54 40.3196C50.5962 40.0711 51.5593 39.5881 52.3341 38.9181C53.1089 38.2482 53.6684 37.4146 53.9575 36.4997C54.9925 33.1089 55 26.0737 55 26.0737C55 26.0737 55.05 18.9996 53.9825 15.6066ZM24.99 32.5109L25.0025 19.5109L38.02 26.0217L24.99 32.5109Z"
        fill="white" />
    <path
        d="M11.2422 49.4883L8.57422 44.8945H9.97656L11.8555 48.3672L13.7109 44.8945H15.1133L12.4805 49.4805V51H11.2422V49.4883ZM15.6289 48.6953C15.6289 48.3646 15.6953 48.0547 15.8281 47.7656C15.9635 47.4766 16.1549 47.224 16.4023 47.0078C16.6523 46.7917 16.9531 46.6211 17.3047 46.4961C17.6589 46.3711 18.056 46.3086 18.4961 46.3086C18.9362 46.3086 19.332 46.3711 19.6836 46.4961C20.0378 46.6211 20.3385 46.7917 20.5859 47.0078C20.8359 47.224 21.0273 47.4766 21.1602 47.7656C21.2956 48.0547 21.3633 48.3646 21.3633 48.6953C21.3633 49.026 21.2956 49.3359 21.1602 49.625C21.0273 49.9141 20.8359 50.1667 20.5859 50.3828C20.3385 50.599 20.0378 50.7695 19.6836 50.8945C19.332 51.0195 18.9362 51.082 18.4961 51.082C18.056 51.082 17.6589 51.0195 17.3047 50.8945C16.9531 50.7695 16.6523 50.599 16.4023 50.3828C16.1549 50.1667 15.9635 49.9141 15.8281 49.625C15.6953 49.3359 15.6289 49.026 15.6289 48.6953ZM16.8438 48.6953C16.8438 48.8802 16.8802 49.056 16.9531 49.2227C17.0286 49.3867 17.1367 49.5326 17.2773 49.6602C17.4206 49.7852 17.5938 49.8854 17.7969 49.9609C18.0026 50.0339 18.2357 50.0703 18.4961 50.0703C18.7565 50.0703 18.9883 50.0339 19.1914 49.9609C19.3971 49.8854 19.5703 49.7852 19.7109 49.6602C19.8542 49.5326 19.9622 49.3867 20.0352 49.2227C20.1107 49.056 20.1484 48.8802 20.1484 48.6953C20.1484 48.5104 20.1107 48.3346 20.0352 48.168C19.9622 48.0013 19.8542 47.8555 19.7109 47.7305C19.5703 47.6029 19.3971 47.5026 19.1914 47.4297C18.9883 47.3542 18.7565 47.3164 18.4961 47.3164C18.2357 47.3164 18.0026 47.3542 17.7969 47.4297C17.5938 47.5026 17.4206 47.6029 17.2773 47.7305C17.1367 47.8555 17.0286 48.0013 16.9531 48.168C16.8802 48.3346 16.8438 48.5104 16.8438 48.6953ZM22.5312 46.3867H23.6836V48.6367C23.6836 48.8503 23.707 49.0456 23.7539 49.2227C23.8008 49.3971 23.8802 49.5469 23.9922 49.6719C24.1068 49.7969 24.2578 49.8945 24.4453 49.9648C24.6354 50.0326 24.8711 50.0664 25.1523 50.0664C25.2852 50.0664 25.4193 50.0521 25.5547 50.0234C25.6927 49.9948 25.8242 49.9557 25.9492 49.9062C26.0742 49.8542 26.1901 49.793 26.2969 49.7227C26.4062 49.6523 26.5 49.5755 26.5781 49.4922V46.3867H27.7344V51H26.5781V50.6055C26.2943 50.7747 26.0091 50.8958 25.7227 50.9688C25.4362 51.0417 25.1641 51.0781 24.9062 51.0781C24.4844 51.0781 24.1224 51.0273 23.8203 50.9258C23.5208 50.8242 23.2747 50.6771 23.082 50.4844C22.8919 50.2891 22.7526 50.0508 22.6641 49.7695C22.5755 49.4857 22.5312 49.1628 22.5312 48.8008V46.3867ZM29.8984 47.2578H28.7852V46.3906H29.8984V44.957H31.0547V46.3906H32.168V47.2578H31.0547V51H29.8984V47.2578ZM33.1953 46.3867H34.3477V48.6367C34.3477 48.8503 34.3711 49.0456 34.418 49.2227C34.4648 49.3971 34.5443 49.5469 34.6562 49.6719C34.7708 49.7969 34.9219 49.8945 35.1094 49.9648C35.2995 50.0326 35.5352 50.0664 35.8164 50.0664C35.9492 50.0664 36.0833 50.0521 36.2188 50.0234C36.3568 49.9948 36.4883 49.9557 36.6133 49.9062C36.7383 49.8542 36.8542 49.793 36.9609 49.7227C37.0703 49.6523 37.1641 49.5755 37.2422 49.4922V46.3867H38.3984V51H37.2422V50.6055C36.9583 50.7747 36.6732 50.8958 36.3867 50.9688C36.1003 51.0417 35.8281 51.0781 35.5703 51.0781C35.1484 51.0781 34.7865 51.0273 34.4844 50.9258C34.1849 50.8242 33.9388 50.6771 33.7461 50.4844C33.556 50.2891 33.4167 50.0508 33.3281 49.7695C33.2396 49.4857 33.1953 49.1628 33.1953 48.8008V46.3867ZM39.8359 44.5195H40.9922V46.8242C41.0938 46.7539 41.2135 46.6875 41.3516 46.625C41.4896 46.5625 41.638 46.5078 41.7969 46.4609C41.9557 46.4141 42.1198 46.3776 42.2891 46.3516C42.4583 46.3229 42.6276 46.3086 42.7969 46.3086C43.1875 46.3086 43.5456 46.3659 43.8711 46.4805C44.1992 46.5951 44.4805 46.7565 44.7148 46.9648C44.9492 47.1732 45.1315 47.4232 45.2617 47.7148C45.3945 48.0039 45.4609 48.3242 45.4609 48.6758C45.4609 49.043 45.3919 49.375 45.2539 49.6719C45.1159 49.9661 44.9245 50.2188 44.6797 50.4297C44.4375 50.638 44.1484 50.7995 43.8125 50.9141C43.4792 51.026 43.1172 51.082 42.7266 51.082C42.5599 51.082 42.3945 51.0716 42.2305 51.0508C42.069 51.0299 41.9128 51.0013 41.7617 50.9648C41.6133 50.9284 41.4727 50.8854 41.3398 50.8359C41.2096 50.7839 41.0938 50.7279 40.9922 50.668V51H39.8359V44.5195ZM40.9922 49.5508C41.1094 49.6445 41.2331 49.724 41.3633 49.7891C41.4935 49.8542 41.6263 49.9076 41.7617 49.9492C41.8971 49.9909 42.0339 50.0221 42.1719 50.043C42.3099 50.0612 42.444 50.0703 42.5742 50.0703C42.8398 50.0703 43.0755 50.0352 43.2812 49.9648C43.4896 49.8919 43.6641 49.793 43.8047 49.668C43.9479 49.543 44.0573 49.3958 44.1328 49.2266C44.2083 49.0573 44.2461 48.8737 44.2461 48.6758C44.2461 48.4909 44.2083 48.3164 44.1328 48.1523C44.0599 47.9883 43.9531 47.8451 43.8125 47.7227C43.6745 47.5977 43.5065 47.5 43.3086 47.4297C43.1133 47.3568 42.8932 47.3203 42.6484 47.3203C42.4922 47.3203 42.3359 47.3359 42.1797 47.3672C42.0234 47.3958 41.8724 47.4375 41.7266 47.4922C41.5833 47.5469 41.4479 47.6133 41.3203 47.6914C41.1953 47.7695 41.0859 47.8568 40.9922 47.9531V49.5508ZM46.3125 48.6797C46.3125 48.3672 46.3763 48.069 46.5039 47.7852C46.6315 47.4987 46.8151 47.2461 47.0547 47.0273C47.2943 46.8086 47.5872 46.6341 47.9336 46.5039C48.2826 46.3737 48.6784 46.3086 49.1211 46.3086C49.5612 46.3086 49.957 46.375 50.3086 46.5078C50.6628 46.638 50.9622 46.8177 51.207 47.0469C51.4544 47.276 51.6432 47.5456 51.7734 47.8555C51.9062 48.1654 51.9727 48.4974 51.9727 48.8516C51.9727 48.8958 51.9714 48.944 51.9688 48.9961C51.9688 49.0456 51.9661 49.0911 51.9609 49.1328H47.6016C47.651 49.2708 47.7305 49.3971 47.8398 49.5117C47.9518 49.6263 48.0911 49.7253 48.2578 49.8086C48.4245 49.8919 48.6172 49.957 48.8359 50.0039C49.0547 50.0482 49.2969 50.0703 49.5625 50.0703C49.8281 50.0703 50.0924 50.043 50.3555 49.9883C50.6185 49.931 50.8698 49.8594 51.1094 49.7734L51.5 50.6562C51.349 50.7266 51.1953 50.7891 51.0391 50.8438C50.8854 50.8958 50.724 50.9401 50.5547 50.9766C50.388 51.0104 50.2122 51.0365 50.0273 51.0547C49.8451 51.0729 49.6523 51.082 49.4492 51.082C48.931 51.082 48.4766 51.0195 48.0859 50.8945C47.6953 50.7695 47.3685 50.599 47.1055 50.3828C46.8424 50.1667 46.6445 49.9128 46.5117 49.6211C46.3789 49.3294 46.3125 49.0156 46.3125 48.6797ZM50.7461 48.2305C50.7044 48.1029 50.6393 47.9844 50.5508 47.875C50.4648 47.763 50.3568 47.6667 50.2266 47.5859C50.0964 47.5026 49.9453 47.4375 49.7734 47.3906C49.6016 47.3438 49.4128 47.3203 49.207 47.3203C48.9883 47.3203 48.7891 47.3451 48.6094 47.3945C48.4297 47.444 48.2721 47.5104 48.1367 47.5938C48.0013 47.6771 47.888 47.7734 47.7969 47.8828C47.7083 47.9922 47.6432 48.1081 47.6016 48.2305H50.7461Z"
        fill="white" />
</svg>